<?xml version="1.0" encoding="UTF-8"?>
<svg version="1.1" viewBox="0 0 2048 2048" width="1280" height="1280" xmlns="http://www.w3.org/2000/svg">
<path transform="translate(510,127)" d="m0 0h1025l24 2 17 4 18 8 11 6 12 9 10 9 7 7 11 15 9 17 6 16 3 14 1 8 1 25v157l1 15 7 24 18 57 18 63 15 58 13 57 11 56 11 67 9 69 7 69 6 84 4 78 3 85 2 79 2 161v297l-2 17-6 25-7 19-8 16-8 14-9 12-12 14-13 13-14 11-15 10-15 8-26 10-21 5-13 2-12 1h-1175l-26-3-22-6-16-6-16-8-12-7-14-10-10-9-2-1v-2l-4-2-7-7-7-8-10-13-10-16-8-15-8-21-5-19-3-20-1-16v-102l1-235 1-94 3-115 3-80 5-87 4-53 7-70 8-63 9-57 8-44 9-44 10-43 13-51 12-43 14-47 19-60 1-5 1-187 2-18 5-19 6-15 9-15 9-12 16-16 16-11 15-8 18-6 17-3zm3 129-1 47v80l131 1h891l1-1v-127zm-16 256-3 1-6 21-14 46-16 59-12 49-11 50-12 64-8 52-5 39-5 44-5 53-5 73-3 55-4 111-2 105-1 89-1 295 1 19 3 13 6 12 9 11 8 7 16 8 13 3 154 1h850l164-1 16-4 11-6 11-9 9-12 5-11 3-13v-226l-1-140-1-78-2-83-4-104-5-84-4-50-5-51-7-58-10-65-11-59-11-50-16-64-15-54-11-36-6-20-3-2z"/>
<path transform="translate(1016,959)" d="m0 0h16l19 2 21 5 15 5 18 8 19 10 16 11 13 10 14 12 21 21 7 8 14 18 15 22 10 17 12 23 9 20 9 25 8 28 5 26 3 26v39l-3 17-5 16-6 14-10 16-8 10h-2l-2 4-4 2v2l-13 10-16 9-17 7-21 5-9 1h-28l-20-3-25-7-24-10-23-12-17-11-7 1-16 10-25 13-23 9-21 6-16 3-10 1h-28l-18-3-18-6-16-8-12-8-12-11-10-10-10-15-8-16-5-14-4-19-1-10v-21l2-24 4-26 6-25 7-23 11-28 8-17 12-22 14-22 14-19 14-17 8-9h2l2-4 15-14 11-9 15-11 14-9 16-9 21-9 19-6 21-4zm0 130-13 4-10 5-14 10-11 9v2l-4 2-12 13-10 13-8 12-9 15-13 27-8 24-5 23-3 31 10-1 13-4 16-8 17-10 15-9 17-7 16-4 19-2h10l19 2 21 6 17 8 26 16 19 9 14 4h6v-12l-3-23-6-25-8-22-12-25-11-18-12-16-12-14-10-10-14-11-14-8-9-4-8-2z"/>
<path transform="translate(638,1535)" d="m0 0h770l17 2 12 5 11 7 11 11 8 13 4 11 1 4v23l-4 13-6 12-11 12-9 7-13 6-14 3h-784l-13-3-12-6-10-8-7-7-8-13-4-11-2-12 1-16 5-16 7-11 10-11 10-7 15-6z"/>
<path transform="translate(1123,767)" d="m0 0 15 1 14 4 12 7 10 9 8 11 6 12 3 12v17l-4 15-5 10-10 13-10 8-12 6-14 4h-20l-11-3-14-7-11-9-8-10-8-16-2-9v-20l3-12 7-14 9-11 9-7 11-6 13-4z"/>
<path transform="translate(918,767)" d="m0 0 15 1 14 4 12 7 13 12 8 13 4 10 2 9v17l-3 13-7 14-9 11-10 8-14 7-12 3h-20l-11-3-14-7-11-9-9-12-6-12-3-11v-19l3-12 8-16 9-10 8-7 16-8 8-2z"/>
<path transform="translate(758,870)" d="m0 0h20l12 3 12 6 11 9 8 9 8 16 3 10v23l-4 13-6 11-9 11-9 7-16 8-13 3h-15l-15-4-13-7-11-9-9-12-5-10-3-10-1-16 3-16 5-12 7-10 5-6 12-9 11-5z"/>
<path transform="translate(1270,870)" d="m0 0h20l14 4 13 7 13 12 7 11 5 11 2 8v23l-5 15-6 10-8 10-12 9-11 5-15 4h-15l-15-4-13-7-12-10-10-14-5-13-2-13 1-15 4-14 6-11 9-11 12-9 11-5z"/>
</svg>
